<svg fill="#3d3846" height="64px" width="64px" version="1.1" id="Capa_1" xmlns="http://www.w3.org/2000/svg" xmlns:xlink="http://www.w3.org/1999/xlink" viewBox="-115.82 -115.82 714.21 714.21" xml:space="preserve" transform="matrix(1, 0, 0, 1, 0, 0)" stroke="#3d3846"><g id="SVGRepo_bgCarrier" stroke-width="0" transform="translate(0,0), scale(1)"><path transform="translate(-115.82, -115.82), scale(22.3190625)" d="M16,26.7977576832238C18.735680374380024,27.061991325956214,21.31031551140954,29.170855867293426,23.92983751072455,28.339068019447367C26.67831206475835,27.466333324049792,29.29463954673185,25.178252899936837,29.946646842604977,22.36922020008263C30.596309405019348,19.57028927822964,27.62191871794315,17.231517828498305,27.16652560475394,14.394495998697293C26.722859762705212,11.630533078365808,29.040235053840792,8.397049497244616,27.346141399704823,6.168512511824719C25.67313231691294,3.9677117421372277,22.156969392745204,4.813441960603854,19.45143515744519,4.245491328435207C16.993588854633817,3.729535794314864,14.55323473853511,2.167838279270046,12.178289604013766,2.9844496736592845C9.81830108318042,3.7959183213881618,8.995865045180421,6.632904124626888,7.2688405624919366,8.434407280579347C5.420877825688839,10.36206420484648,2.535600408784565,11.41243917509651,1.6752714783710854,13.940414971219056C0.7735290807674324,16.590079390133766,1.2365371244346282,19.6766500132624,2.613568726692691,22.113378322057045C3.9487850936492563,24.476112419367375,6.4354872952127256,26.000351717326584,8.997087261233311,26.896744920817603C11.24615620543995,27.683772615427337,13.628240201395558,26.568674367372775,16,26.7977576832238" fill="#9a9996" strokewidth="0"></path></g><g id="SVGRepo_tracerCarrier" stroke-linecap="round" stroke-linejoin="round" stroke="#CCCCCC" stroke-width="16.407312"> <g> <g> <path d="M116.993,203.218c13.4-1.8,26.8,2.8,36.3,12.3l24,24l22.7-22.6l-32.8-32.7c-5.1-5.1-5.1-13.4,0-18.5s13.4-5.1,18.5,0 l32.8,32.8l22.7-22.6l-24.1-24.1c-9.5-9.5-14.1-23-12.3-36.3c4-30.4-5.7-62.2-29-85.6c-23.8-23.8-56.4-33.4-87.3-28.8 c-4.9,0.7-6.9,6.8-3.4,10.3l30.9,30.9c14.7,14.7,14.7,38.5,0,53.1l-19,19c-14.7,14.7-38.5,14.7-53.1,0l-31-30.9 c-3.5-3.5-9.5-1.5-10.3,3.4c-4.6,30.9,5,63.5,28.8,87.3C54.793,197.518,86.593,207.218,116.993,203.218z"></path> <path d="M309.193,243.918l-22.7,22.6l134.8,134.8c5.1,5.1,5.1,13.4,0,18.5s-13.4,5.1-18.5,0l-134.8-134.8l-22.7,22.6l138.9,138.9 c17.6,17.6,46.1,17.5,63.7-0.1s17.6-46.1,0.1-63.7L309.193,243.918z"></path> <path d="M361.293,153.918h59.9l59.9-119.7l-29.9-29.9l-119.8,59.8v59.9l-162.8,162.3l-29.3-29.2l-118,118 c-24.6,24.6-24.6,64.4,0,89s64.4,24.6,89,0l118-118l-29.9-29.9L361.293,153.918z"></path> </g> </g> </g><g id="SVGRepo_iconCarrier"> <g> <g> <path d="M116.993,203.218c13.4-1.8,26.8,2.8,36.3,12.3l24,24l22.7-22.6l-32.8-32.7c-5.1-5.1-5.1-13.4,0-18.5s13.4-5.1,18.5,0 l32.8,32.8l22.7-22.6l-24.1-24.1c-9.5-9.5-14.1-23-12.3-36.3c4-30.4-5.7-62.2-29-85.6c-23.8-23.8-56.4-33.4-87.3-28.8 c-4.9,0.7-6.9,6.8-3.4,10.3l30.9,30.9c14.7,14.7,14.7,38.5,0,53.1l-19,19c-14.7,14.7-38.5,14.7-53.1,0l-31-30.9 c-3.5-3.5-9.5-1.5-10.3,3.4c-4.6,30.9,5,63.5,28.8,87.3C54.793,197.518,86.593,207.218,116.993,203.218z"></path> <path d="M309.193,243.918l-22.7,22.6l134.8,134.8c5.1,5.1,5.1,13.4,0,18.5s-13.4,5.1-18.5,0l-134.8-134.8l-22.7,22.6l138.9,138.9 c17.6,17.6,46.1,17.5,63.7-0.1s17.6-46.1,0.1-63.7L309.193,243.918z"></path> <path d="M361.293,153.918h59.9l59.9-119.7l-29.9-29.9l-119.8,59.8v59.9l-162.8,162.3l-29.3-29.2l-118,118 c-24.6,24.6-24.6,64.4,0,89s64.4,24.6,89,0l118-118l-29.9-29.9L361.293,153.918z"></path> </g> </g> </g></svg>